Coordinates
version=1
nRows=18
nColumns=22
inDegrees=yes

Units are S.I. units (second, meters, Newtons, ...)
If the header above contains a line with 'inDegrees', this indicates whether rotational values are in degrees (yes) or radians (no).

endheader
time	pelvis_tilt	pelvis_list	pelvis_rotation	pelvis_tx	pelvis_ty	pelvis_tz	hip_flexion_r	hip_adduction_r	hip_rotation_r	knee_angle_r	ankle_angle_r	subtalar_angle_r	hip_flexion_l	hip_adduction_l	hip_rotation_l	knee_angle_l	ankle_angle_l	subtalar_angle_l	lumbar_extension	lumbar_bending	lumbar_rotation
      1.38000000	      1.78479100	     -1.07282529	     74.06611634	      1.49827288	      0.90943740	      0.31187924	     27.31677201	     -3.47976652	      8.00546171	    -63.18778554	      1.12368548	      8.83650449	      8.16727620	      9.72665552	     -1.82214301	    -22.93243282	     13.64595483	    -17.54880547	     -7.04914996	     -4.68359754	     -4.05830484
      1.39000000	      2.06146225	     -1.04971765	     75.36539489	      1.49852501	      0.91015692	      0.30298654	     27.65180916	     -3.54332592	      7.88408202	    -60.79105438	      2.02749239	      8.01744221	      7.09050330	      9.64691768	     -0.46920555	    -22.40670346	     13.76378081	    -17.65189657	     -7.24336928	     -4.25695727	     -4.71322862
      1.40000000	      2.33831646	     -1.05027937	     76.69575131	      1.49872378	      0.91070643	      0.29414019	     27.89437529	     -3.62168384	      7.63705133	    -58.16426307	      2.84365473	      7.21503575	      6.09415136	      9.51218637	      0.86598950	    -21.95944617	     13.92622495	    -17.74958605	     -7.39190592	     -3.83770237	     -5.36104500
      1.41000000	      2.61156290	     -1.06569384	     78.03849674	      1.49888886	      0.91108924	      0.28534353	     28.04925384	     -3.70527200	      7.28083347	    -55.33035881	      3.53773828	      6.46353679	      5.16894079	      9.33144516	      2.17158431	    -21.58314173	     14.12691976	    -17.82505651	     -7.50617385	     -3.43529209	     -5.98767368
      1.42000000	      2.87173371	     -1.10690837	     79.38312527	      1.49904804	      0.91126038	      0.27661065	     28.14457189	     -3.78044951	      6.84519941	    -52.32062497	      4.10669695	      5.85919703	      4.33588040	      9.11681995	      3.44546265	    -21.29006890	     14.36922863	    -17.86233891	     -7.57438890	     -3.06172012	     -6.60236843
      1.43000000	      3.11415664	     -1.16666542	     80.71010749	      1.49922937	      0.91122420	      0.26795888	     28.18472475	     -3.82496719	      6.38523890	    -49.15538216	      4.50799603	      5.44561908	      3.58728254	      8.88378629	      4.69888316	    -21.07893115	     14.64268278	    -17.86859157	     -7.61133955	     -2.72595940	     -7.20765564
      1.44000000	      3.34479750	     -1.24095640	     82.00359491	      1.49945749	      0.91097571	      0.25932824	     28.16950050	     -3.83501574	      5.88568515	    -45.85356475	      4.81336056	      5.20557488	      2.90544656	      8.62731266	      5.89104593	    -20.93437830	     14.94550636	    -17.86417618	     -7.61627216	     -2.42358834	     -7.75752965
      1.45000000	      3.55548221	     -1.32754428	     83.25301170	      1.49976287	      0.91051615	      0.25075726	     28.11053548	     -3.78889289	      5.42659332	    -42.44081634	      4.95394239	      5.21624172	      2.29079671	      8.36649295	      7.05635393	    -20.86006531	     15.26889843	    -17.84347740	     -7.60291280	     -2.16793114	     -8.28221652
      1.46000000	      3.75201762	     -1.41765428	     84.45217889	      1.50015844	      0.90985739	      0.24219513	     27.99705432	     -3.68238933	      5.01753648	    -38.93360857	      5.00682914	      5.44410346	      1.72169447	      8.09629367	      8.16156197	    -20.84257330	     15.61670212	    -17.81613876	     -7.57913866	     -1.95256322	     -8.76909646
      1.47000000	      3.92733783	     -1.56143475	     85.61776926	      1.50063749	      0.90889281	      0.23367229	     27.90006212	     -3.52325052	      4.67468458	    -35.37520754	      5.00972671	      5.79169332	      1.28080816	      7.82629512	      9.20235436	    -20.93504957	     16.02245490	    -17.77592821	     -7.49036705	     -1.78219151	     -9.25063104
      1.48000000	      4.09037774	     -1.59557796	     86.67759031	      1.50125989	      0.90796228	      0.22501725	     27.62016893	     -3.29026771	      4.49892366	    -31.74676014	      5.04079913	      6.43451428	      0.67443794	      7.55230308	     10.15858285	    -20.93558137	     16.37439722	    -17.75572953	     -7.51744666	     -1.65572811	     -9.62739239
      1.49000000	      4.22529741	     -1.68095404	     87.69564500	      1.50196224	      0.90673714	      0.21635835	     27.37134367	     -3.02272685	      4.45018263	    -28.13638858	      5.16614709	      7.02887310	      0.17458011	      7.28712438	     11.02563449	    -21.01897255	     16.77836973	    -17.73764619	     -7.48080950	     -1.57729521	     -9.98715517
      1.50000000	      4.33366085	     -1.75753909	     88.64144706	      1.50275467	      0.90535295	      0.20760613	     27.08459524	     -2.72482867	      4.56897414	    -24.55876170	      5.45983632	      7.50670823	     -0.33556768	      7.03031775	     11.78334514	    -21.09906893	     17.19421045	    -17.72892115	     -7.44358096	     -1.54468522	    -10.30149769
      1.51000000	      4.41267387	     -1.80171456	     89.50383881	      1.50363142	      0.90387181	      0.19872595	     26.73824801	     -2.41298166	      4.85332888	    -21.03793918	      5.96646118	      7.78428310	     -0.90288217	      6.78387575	     12.43204914	    -21.14170420	     17.60400039	    -17.72844082	     -7.43272391	     -1.55895887	    -10.53488927
      1.52000000	      4.46175099	     -1.80366582	     90.28765171	      1.50456020	      0.90232017	      0.18965902	     26.32752178	     -2.10557928	      5.26587405	    -17.60876740	      6.68950015	      7.76738876	     -1.55638195	      6.54536159	     12.97177443	    -21.12141346	     18.00618825	    -17.72802403	     -7.45312187	     -1.61409018	    -10.70560475
      1.53000000	      4.46780039	     -1.74505681	     90.97689689	      1.50554602	      0.90073991	      0.18036928	     25.84906067	     -1.81868978	      5.77839653	    -14.31968060	      7.61297998	      7.39721720	     -2.33997091	      6.32760200	     13.41302080	    -21.00027846	     18.38258591	    -17.72652753	     -7.52470910	     -1.72268473	    -10.79105189
      1.54000000	      4.44817169	     -1.62102245	     91.60248570	      1.50651436	      0.89914924	      0.17082206	     25.31159524	     -1.55503667	      6.27367975	    -11.23281808	      8.66274807	      6.77516998	     -3.25589837	      6.11073063	     13.76655729	    -20.78795558	     18.72474538	    -17.71137003	     -7.65058215	     -1.85283071	    -10.84259762
      1.55000000	      4.37742158	     -1.43669761	     92.14354407	      1.50749479	      0.89755091	      0.16103536	     24.76247762	     -1.32328858	      6.74592043	     -8.45276223	      9.77368791	      5.90119141	     -4.30430854	      5.92778416	     14.04704864	    -20.47592141	     19.01696248	    -17.68868495	     -7.82778711	     -2.03841012	    -10.82410742
